<svg width="151" height="48" viewBox="0 0 151 48" fill="none" xmlns="http://www.w3.org/2000/svg">
<path d="M52.4624 40.2612H50.2915V44H49.0664V34.7578H52.126C53.167 34.7578 53.9668 34.9948 54.5254 35.4688C55.0882 35.9427 55.3696 36.6325 55.3696 37.5381C55.3696 38.1136 55.2131 38.6151 54.8999 39.0425C54.591 39.4699 54.1593 39.7894 53.605 40.001L55.7759 43.9238V44H54.4683L52.4624 40.2612ZM50.2915 39.2646H52.1641C52.7692 39.2646 53.2495 39.1081 53.605 38.7949C53.9647 38.4818 54.1445 38.0628 54.1445 37.5381C54.1445 36.9668 53.9731 36.5288 53.6304 36.2241C53.2918 35.9194 52.8009 35.765 52.1577 35.7607H50.2915V39.2646ZM61.1396 44C61.0719 43.8646 61.0169 43.6234 60.9746 43.2764C60.4287 43.8434 59.777 44.127 59.0195 44.127C58.3424 44.127 57.786 43.9365 57.3501 43.5557C56.9185 43.1706 56.7026 42.6839 56.7026 42.0957C56.7026 41.3805 56.9735 40.8262 57.5151 40.4326C58.061 40.0348 58.827 39.8359 59.813 39.8359H60.9556V39.2964C60.9556 38.8859 60.8328 38.5601 60.5874 38.3188C60.342 38.0734 59.9801 37.9507 59.502 37.9507C59.083 37.9507 58.7318 38.0565 58.4482 38.2681C58.1647 38.4797 58.0229 38.7357 58.0229 39.0361H56.8423C56.8423 38.6934 56.9629 38.3633 57.2041 38.0459C57.4495 37.7243 57.7796 37.4704 58.1943 37.2842C58.6133 37.098 59.0724 37.0049 59.5718 37.0049C60.3631 37.0049 60.9831 37.2038 61.4316 37.6016C61.8802 37.9951 62.113 38.5389 62.1299 39.2329V42.394C62.1299 43.0246 62.2103 43.526 62.3711 43.8984V44H61.1396ZM59.1909 43.105C59.5591 43.105 59.9082 43.0098 60.2383 42.8193C60.5684 42.6289 60.8075 42.3813 60.9556 42.0767V40.6675H60.0352C58.5964 40.6675 57.877 41.0885 57.877 41.9307C57.877 42.2988 57.9997 42.5866 58.2451 42.7939C58.4906 43.0013 58.8058 43.105 59.1909 43.105ZM65.564 35.4688V37.1318H66.8462V38.0396H65.564V42.2988C65.564 42.5739 65.6211 42.7812 65.7354 42.9209C65.8496 43.0563 66.0443 43.124 66.3193 43.124C66.4548 43.124 66.641 43.0986 66.8779 43.0479V44C66.569 44.0846 66.2686 44.127 65.9766 44.127C65.4518 44.127 65.0562 43.9683 64.7896 43.6509C64.5229 43.3335 64.3896 42.8828 64.3896 42.2988V38.0396H63.1392V37.1318H64.3896V35.4688H65.564ZM69.4995 44H68.3252V37.1318H69.4995V44ZM68.23 35.3101C68.23 35.1196 68.2871 34.9588 68.4014 34.8276C68.5199 34.6965 68.6934 34.6309 68.9219 34.6309C69.1504 34.6309 69.3239 34.6965 69.4424 34.8276C69.5609 34.9588 69.6201 35.1196 69.6201 35.3101C69.6201 35.5005 69.5609 35.6592 69.4424 35.7861C69.3239 35.9131 69.1504 35.9766 68.9219 35.9766C68.6934 35.9766 68.5199 35.9131 68.4014 35.7861C68.2871 35.6592 68.23 35.5005 68.23 35.3101ZM72.4956 37.1318L72.5337 37.9951C73.0584 37.335 73.744 37.0049 74.5903 37.0049C76.0418 37.0049 76.7739 37.8237 76.7866 39.4614V44H75.6123V39.4551C75.6081 38.96 75.4938 38.5939 75.2695 38.3569C75.0495 38.12 74.7046 38.0015 74.2349 38.0015C73.854 38.0015 73.5197 38.103 73.2319 38.3062C72.9442 38.5093 72.7199 38.7759 72.5591 39.106V44H71.3848V37.1318H72.4956ZM78.2783 40.5088C78.2783 39.4382 78.5259 38.5876 79.021 37.957C79.5161 37.3223 80.172 37.0049 80.9888 37.0049C81.8267 37.0049 82.4805 37.3011 82.9502 37.8936L83.0073 37.1318H84.0801V43.835C84.0801 44.7236 83.8156 45.424 83.2866 45.936C82.7619 46.4481 82.0552 46.7041 81.1665 46.7041C80.6714 46.7041 80.1868 46.5983 79.7129 46.3867C79.2389 46.1751 78.8771 45.8853 78.6274 45.5171L79.2368 44.8125C79.7404 45.4346 80.3561 45.7456 81.084 45.7456C81.6553 45.7456 82.0996 45.5848 82.417 45.2632C82.7386 44.9416 82.8994 44.4888 82.8994 43.9048V43.3145C82.4297 43.8561 81.7886 44.127 80.9761 44.127C80.172 44.127 79.5203 43.8032 79.021 43.1558C78.5259 42.5083 78.2783 41.626 78.2783 40.5088ZM79.459 40.6421C79.459 41.4165 79.6177 42.0259 79.9351 42.4702C80.2524 42.9103 80.6968 43.1304 81.2681 43.1304C82.0086 43.1304 82.5524 42.7939 82.8994 42.1211V38.9854C82.5397 38.3294 82.0002 38.0015 81.2808 38.0015C80.7095 38.0015 80.263 38.2236 79.9414 38.668C79.6198 39.1123 79.459 39.7703 79.459 40.6421Z" fill="white"/>
<path d="M54.3 15.78C54.78 15.86 55.15 15.95 55.41 16.05C55.69 16.13 55.83 16.26 55.83 16.44V25.5C55.83 25.86 55.57 26.1 55.05 26.22C54.55 26.34 54.06 26.4 53.58 26.4H49.5V5.7H52.89C53.51 5.7 54.1 5.8 54.66 6C55.24 6.2 55.53 6.58 55.53 7.14L55.5 7.44L54.63 15.09C54.63 15.31 54.61 15.46 54.57 15.54C54.53 15.62 54.44 15.7 54.3 15.78ZM51.21 14.55C51.21 14.71 51.33 14.79 51.57 14.79L52.71 14.34C52.89 14.3 52.98 14.21 52.98 14.07L53.28 7.59C53.28 7.51 53.14 7.47 52.86 7.47H51.57C51.33 7.47 51.21 7.51 51.21 7.59V14.55ZM52.65 24.72C53.01 24.72 53.26 24.64 53.4 24.48C53.56 24.32 53.64 24.16 53.64 24C53.64 23.88 53.62 23.82 53.58 23.82V17.07C53.64 17.03 53.67 17 53.67 16.98C53.67 16.92 53.6 16.89 53.46 16.89H52.2C52.14 16.89 52.07 16.91 51.99 16.95C51.93 16.99 51.89 17.03 51.87 17.07V24.63C51.89 24.65 51.93 24.67 51.99 24.69C52.05 24.71 52.12 24.72 52.2 24.72H52.65ZM64.7899 27H63.0499L62.2699 18.66H60.7399L59.3599 27H57.9499L59.2999 5.7H64.7899V27ZM62.8999 6.84C62.8999 6.72 62.8399 6.66 62.7199 6.66H61.4299C61.3099 6.66 61.2499 6.72 61.2499 6.84V17.1C61.2499 17.2 61.3099 17.25 61.4299 17.25H62.7199C62.8399 17.25 62.8999 17.19 62.8999 17.07V6.84ZM67.7813 6.03C67.7813 5.93 68.1913 5.85 69.0113 5.79C69.8313 5.73 70.6413 5.7 71.4413 5.7H72.7313C73.0513 5.7 73.3113 5.82 73.5113 6.06C73.7113 6.3 73.8213 6.61 73.8413 6.99L74.1413 15.63L72.7913 17.4L75.1913 26.34L74.6213 27H72.8513L71.3213 17.67L69.7913 17.82L69.1613 27H67.7813V6.03ZM71.9213 15.45C72.0413 15.45 72.1013 15.39 72.1013 15.27V7.8L71.6513 7.35L69.5813 7.56L69.6713 15.57L71.9213 15.45ZM82.1613 15.78C82.6413 15.86 83.0113 15.95 83.2713 16.05C83.5513 16.13 83.6913 16.26 83.6913 16.44V25.5C83.6913 25.86 83.4313 26.1 82.9113 26.22C82.4113 26.34 81.9213 26.4 81.4413 26.4H77.3613V5.7H80.7513C81.3713 5.7 81.9613 5.8 82.5213 6C83.1013 6.2 83.3913 6.58 83.3913 7.14L83.3613 7.44L82.4913 15.09C82.4913 15.31 82.4713 15.46 82.4313 15.54C82.3913 15.62 82.3013 15.7 82.1613 15.78ZM79.0713 14.55C79.0713 14.71 79.1913 14.79 79.4313 14.79L80.5713 14.34C80.7513 14.3 80.8413 14.21 80.8413 14.07L81.1413 7.59C81.1413 7.51 81.0013 7.47 80.7213 7.47H79.4313C79.1913 7.47 79.0713 7.51 79.0713 7.59V14.55ZM80.5113 24.72C80.8713 24.72 81.1213 24.64 81.2613 24.48C81.4213 24.32 81.5013 24.16 81.5013 24C81.5013 23.88 81.4813 23.82 81.4413 23.82V17.07C81.5013 17.03 81.5313 17 81.5313 16.98C81.5313 16.92 81.4613 16.89 81.3213 16.89H80.0613C80.0013 16.89 79.9313 16.91 79.8513 16.95C79.7913 16.99 79.7513 17.03 79.7313 17.07V24.63C79.7513 24.65 79.7913 24.67 79.8513 24.69C79.9113 24.71 79.9813 24.72 80.0613 24.72H80.5113ZM93.1013 27H86.6813V5.7H93.1013V7.56L89.3513 7.38V14.19L93.1013 14.88V16.32L88.8413 16.14V24.75L93.1013 24.51V27ZM96.4336 6.03C96.4336 5.93 96.8436 5.85 97.6636 5.79C98.4836 5.73 99.2936 5.7 100.094 5.7H101.384C101.704 5.7 101.964 5.82 102.164 6.06C102.364 6.3 102.474 6.61 102.494 6.99L102.794 15.63L101.444 17.4L103.844 26.34L103.274 27H101.504L99.9736 17.67L98.4436 17.82L97.8136 27H96.4336V6.03ZM100.574 15.45C100.694 15.45 100.754 15.39 100.754 15.27V7.8L100.304 7.35L98.2336 7.56L98.3236 15.57L100.574 15.45ZM108.114 14.37L111.924 15.36V25.2C111.924 25.62 111.714 26.03 111.294 26.43C110.874 26.81 110.444 27 110.004 27H105.714V24.96H109.884L109.164 16.92L105.714 16.02V7.11C105.714 6.79 105.834 6.48 106.074 6.18C106.334 5.86 106.614 5.7 106.914 5.7H111.924V7.17L107.664 7.74L108.114 14.37ZM119.427 17.7L116.847 17.19V27H114.627V5.7H116.787L116.457 15.15L119.427 15V5.7H121.617V27H120.297L119.427 17.7ZM125.907 5.7H129.957L131.157 6.54V25.92L129.267 27H126.387L124.617 25.74V6.66L125.907 5.7ZM129.147 7.53C129.147 7.35 129.057 7.26 128.877 7.26H127.317C127.137 7.26 127.047 7.35 127.047 7.53V24.72C127.047 24.84 127.137 24.9 127.317 24.9H128.577C128.757 24.9 128.847 24.84 128.847 24.72L129.147 7.53ZM137.888 5.7C138.648 5.7 139.288 5.85 139.808 6.15C140.328 6.43 140.588 6.77 140.588 7.17V15.63C140.588 15.85 140.508 16.13 140.348 16.47C140.208 16.79 139.908 17.1 139.448 17.4C138.988 17.68 138.338 17.82 137.498 17.82H135.908V27H134.168V6.93L133.508 6.57V5.7H137.888ZM136.328 15.81C136.328 15.87 136.358 15.93 136.418 15.99C136.498 16.03 136.588 16.05 136.688 16.05L137.978 15.75C138.098 15.75 138.158 15.69 138.158 15.57L138.458 8.01C138.438 7.75 138.328 7.53 138.128 7.35C137.928 7.15 137.618 7.05 137.198 7.05H136.688C136.448 7.05 136.328 7.12 136.328 7.26V15.81ZM147.839 9.93L147.239 7.59L145.439 7.8L144.989 14.46L149.339 15.24L148.919 25.2C148.919 25.6 148.659 26 148.139 26.4C147.619 26.8 147.139 27 146.699 27H143.189L142.919 21.87H144.689L144.659 24.48L146.759 24.96L147.239 16.98L143.189 16.08V6.42L144.389 5.7H149.099L148.949 9.93H147.839Z" fill="white"/>
<path d="M96.2673 35.1787C96.4188 34.9404 96.7666 34.9404 96.9181 35.1787L98.2548 37.2804C98.3073 37.3629 98.3892 37.4224 98.4839 37.4468L100.896 38.0686C101.169 38.1391 101.277 38.4699 101.097 38.6876L99.5111 40.6083C99.4489 40.6837 99.4176 40.78 99.4236 40.8777L99.5776 43.3636C99.595 43.6454 99.3137 43.8499 99.0511 43.7462L96.7343 42.8316C96.6433 42.7956 96.5421 42.7956 96.4511 42.8316L94.1344 43.7462C93.8718 43.8499 93.5904 43.6454 93.6079 43.3636L93.7618 40.8777C93.7678 40.78 93.7366 40.6837 93.6743 40.6083L92.0885 38.6876C91.9088 38.4699 92.0162 38.1391 92.2896 38.0686L94.7015 37.4468C94.7962 37.4224 94.8781 37.3629 94.9306 37.2804L96.2673 35.1787Z" fill="#D7B45C"/>
<path d="M108.267 35.1787C108.419 34.9404 108.767 34.9404 108.918 35.1787L110.255 37.2804C110.307 37.3629 110.389 37.4224 110.484 37.4468L112.896 38.0686C113.169 38.1391 113.277 38.4699 113.097 38.6876L111.511 40.6083C111.449 40.6837 111.418 40.78 111.424 40.8777L111.578 43.3636C111.595 43.6454 111.314 43.8499 111.051 43.7462L108.734 42.8316C108.643 42.7956 108.542 42.7956 108.451 42.8316L106.134 43.7462C105.872 43.8499 105.59 43.6454 105.608 43.3636L105.762 40.8777C105.768 40.78 105.737 40.6837 105.674 40.6083L104.089 38.6876C103.909 38.4699 104.016 38.1391 104.29 38.0686L106.702 37.4468C106.796 37.4224 106.878 37.3629 106.931 37.2804L108.267 35.1787Z" fill="#D7B45C"/>
<path d="M120.267 35.1787C120.419 34.9404 120.767 34.9404 120.918 35.1787L122.255 37.2804C122.307 37.3629 122.389 37.4224 122.484 37.4468L124.896 38.0686C125.169 38.1391 125.277 38.4699 125.097 38.6876L123.511 40.6083C123.449 40.6837 123.418 40.78 123.424 40.8777L123.578 43.3636C123.595 43.6454 123.314 43.8499 123.051 43.7462L120.734 42.8316C120.643 42.7956 120.542 42.7956 120.451 42.8316L118.134 43.7462C117.872 43.8499 117.59 43.6454 117.608 43.3636L117.762 40.8777C117.768 40.78 117.737 40.6837 117.674 40.6083L116.089 38.6876C115.909 38.4699 116.016 38.1391 116.29 38.0686L118.702 37.4468C118.796 37.4224 118.878 37.3629 118.931 37.2804L120.267 35.1787Z" fill="#D7B45C"/>
<path d="M132.267 35.1787C132.419 34.9404 132.767 34.9404 132.918 35.1787L134.255 37.2804C134.307 37.3629 134.389 37.4224 134.484 37.4468L136.896 38.0686C137.169 38.1391 137.277 38.4699 137.097 38.6876L135.511 40.6083C135.449 40.6837 135.418 40.78 135.424 40.8777L135.578 43.3636C135.595 43.6454 135.314 43.8499 135.051 43.7462L132.734 42.8316C132.643 42.7956 132.542 42.7956 132.451 42.8316L130.134 43.7462C129.872 43.8499 129.59 43.6454 129.608 43.3636L129.762 40.8777C129.768 40.78 129.737 40.6837 129.674 40.6083L128.089 38.6876C127.909 38.4699 128.016 38.1391 128.29 38.0686L130.702 37.4468C130.796 37.4224 130.878 37.3629 130.931 37.2804L132.267 35.1787Z" fill="#D7B45C"/>
<path d="M144.267 35.1787C144.419 34.9404 144.767 34.9404 144.918 35.1787L146.255 37.2804C146.307 37.3629 146.389 37.4224 146.484 37.4468L148.896 38.0686C149.169 38.1391 149.277 38.4699 149.097 38.6876L147.511 40.6083C147.449 40.6837 147.418 40.78 147.424 40.8777L147.578 43.3636C147.595 43.6454 147.314 43.8499 147.051 43.7462L144.734 42.8316C144.643 42.7956 144.542 42.7956 144.451 42.8316L142.134 43.7462C141.872 43.8499 141.59 43.6454 141.608 43.3636L141.762 40.8777C141.768 40.78 141.737 40.6837 141.674 40.6083L140.089 38.6876C139.909 38.4699 140.016 38.1391 140.29 38.0686L142.702 37.4468C142.796 37.4224 142.878 37.3629 142.931 37.2804L144.267 35.1787Z" fill="#D7B45C"/>
<rect x="3" y="9" width="18" height="32" fill="white"/>
<mask id="mask0" mask-type="alpha" maskUnits="userSpaceOnUse" x="3" y="9" width="18" height="32">
<rect x="3" y="9" width="18" height="32" fill="white"/>
</mask>
<g mask="url(#mask0)">
<rect width="36.8416" height="5.08161" transform="matrix(0.71563 -0.69848 0.71563 0.69848 -2.78564 25.3214)" fill="#FF4E43"/>
<rect width="36.8416" height="5.08161" transform="matrix(0.71563 -0.69848 0.71563 0.69848 -2.78564 37.2429)" fill="#679BFF"/>
<rect width="36.8416" height="5.08161" transform="matrix(0.71563 -0.69848 0.71563 0.69848 -2.78564 51.0468)" fill="#FF4E43"/>
</g>
<path d="M0 6C0 3.79086 1.79086 2 4 2H20C22.2091 2 24 3.79086 24 6V9H0V6Z" fill="white"/>
<path d="M0 44C0 46.2091 1.79086 48 4 48H20C22.2091 48 24 46.2091 24 44V41H0V44Z" fill="white"/>
<rect opacity="0.15" y="9" width="24" height="32" fill="white"/>
<rect width="4" height="46" rx="2" transform="matrix(-1 0 0 1 33 2)" fill="white"/>
<rect width="8" height="3" transform="matrix(-1 0 0 1 29 13)" fill="white"/>
<rect width="8" height="3" transform="matrix(-1 0 0 1 29 34)" fill="white"/>
</svg>
