<svg width="10" height="10" viewBox="0 0 10 10" fill="none" xmlns="http://www.w3.org/2000/svg">
<path d="M4.64574 0.203662C4.8107 -0.0678876 5.1893 -0.0678872 5.35426 0.203662L6.80947 2.59913C6.86663 2.69322 6.9558 2.76104 7.05892 2.78888L9.68468 3.4976C9.98234 3.57794 10.0993 3.95491 9.90363 4.20308L8.17724 6.39228C8.10944 6.47826 8.07538 6.58801 8.08196 6.69929L8.24956 9.53277C8.26855 9.85398 7.96226 10.087 7.67635 9.96879L5.15417 8.92631C5.05511 8.88537 4.94489 8.88537 4.84583 8.92631L2.32365 9.96879C2.03774 10.087 1.73145 9.85398 1.75044 9.53277L1.91804 6.69929C1.92462 6.588 1.89056 6.47826 1.82276 6.39228L0.0963708 4.20308C-0.0993319 3.95491 0.0176623 3.57794 0.315317 3.4976L2.94108 2.78888C3.0442 2.76104 3.13337 2.69322 3.19053 2.59913L4.64574 0.203662Z" fill="#BABABA"/>
</svg>
