<svg width="9" height="9" viewBox="0 0 9 9" fill="none" xmlns="http://www.w3.org/2000/svg">
<path d="M4.18116 0.183296C4.32963 -0.0610988 4.67037 -0.0610985 4.81884 0.183296L6.12853 2.33922C6.17996 2.4239 6.26022 2.48494 6.35303 2.50999L8.71622 3.14784C8.9841 3.22014 9.0894 3.55942 8.91327 3.78277L7.35952 5.75305C7.29849 5.83043 7.26784 5.9292 7.27376 6.02936L7.4246 8.5795C7.4417 8.86858 7.16603 9.07826 6.90871 8.97191L4.63875 8.03368C4.5496 7.99683 4.4504 7.99683 4.36125 8.03368L2.09129 8.97191C1.83397 9.07826 1.5583 8.86858 1.5754 8.5795L1.72624 6.02936C1.73216 5.9292 1.70151 5.83043 1.64048 5.75305L0.0867337 3.78277C-0.0893987 3.55942 0.0158961 3.22014 0.283785 3.14784L2.64697 2.50999C2.73978 2.48494 2.82004 2.4239 2.87147 2.33922L4.18116 0.183296Z" fill="#5A5A5A"/>
</svg>
