<svg width="75" height="75" viewBox="0 0 75 75" fill="none" xmlns="http://www.w3.org/2000/svg">
<path d="M54.9661 30.6451L42.8041 42.8071C42.7006 42.9101 42.563 42.9718 42.4172 42.9807C42.2714 42.9895 42.1273 42.9449 42.0121 42.8551L40.7401 41.8651L51.9781 30.6271C52.1939 30.4004 52.3125 30.0984 52.3088 29.7855C52.3051 29.4725 52.1793 29.1735 51.9582 28.952C51.7371 28.7305 51.4382 28.6042 51.1253 28.5999C50.8124 28.5956 50.5102 28.7137 50.2831 28.9291L38.8321 40.3801L35.7001 37.9531L46.8601 26.7931C47.0759 26.5664 47.1945 26.2644 47.1908 25.9515C47.1871 25.6385 47.0613 25.3395 46.8402 25.118C46.6191 24.8965 46.3202 24.7702 46.0073 24.7659C45.6944 24.7616 45.3922 24.8797 45.1651 25.0951L33.8131 36.4441C32.8031 35.6101 31.8181 34.7451 30.8581 33.8491L42.1861 22.5301C42.314 22.4235 42.4183 22.2915 42.4924 22.1424C42.5665 21.9933 42.6087 21.8305 42.6165 21.6642C42.6242 21.4979 42.5973 21.3318 42.5374 21.1765C42.4775 21.0212 42.386 20.88 42.2686 20.762C42.1512 20.644 42.0105 20.5517 41.8555 20.491C41.7005 20.4303 41.5346 20.4024 41.3683 20.4093C41.2019 20.4162 41.0389 20.4576 40.8894 20.5309C40.74 20.6042 40.6074 20.7078 40.5001 20.8351L29.1571 32.1751C28.2351 31.2451 27.3421 30.2881 26.4781 29.3041L37.9381 17.8471C38.0496 17.7356 38.1381 17.6032 38.1984 17.4575C38.2587 17.3119 38.2898 17.1557 38.2898 16.9981C38.2898 16.8404 38.2587 16.6843 38.1984 16.5386C38.1381 16.3929 38.0496 16.2606 37.9381 16.1491C37.8266 16.0376 37.6943 15.9491 37.5486 15.8888C37.4029 15.8285 37.2468 15.7974 37.0891 15.7974C36.9314 15.7974 36.7753 15.8285 36.6296 15.8888C36.484 15.9491 36.3516 16.0376 36.2401 16.1491L24.9001 27.4651C24.0681 26.4431 23.2681 25.3941 22.5001 24.3181L34.0801 12.7381C34.21 12.6324 34.3164 12.5008 34.3923 12.3516C34.4683 12.2024 34.5122 12.039 34.5213 11.8718C34.5303 11.7046 34.5043 11.5374 34.4448 11.3809C34.3853 11.2244 34.2938 11.0821 34.1761 10.9631C34.0583 10.844 33.917 10.751 33.7611 10.6899C33.6052 10.6288 33.4383 10.6009 33.271 10.6082C33.1038 10.6154 32.9399 10.6576 32.7899 10.732C32.6399 10.8064 32.5071 10.9113 32.4001 11.0401L21.1201 22.3141L20.0911 20.8141C20.0117 20.6983 19.9754 20.5583 19.9886 20.4185C20.0018 20.2788 20.0635 20.148 20.1631 20.0491L32.0551 8.16007C32.1667 8.04862 32.2552 7.91628 32.3156 7.7706C32.376 7.62492 32.4071 7.46877 32.4071 7.31107C32.4071 7.15337 32.376 6.99722 32.3156 6.85154C32.2552 6.70586 32.1667 6.57352 32.0551 6.46207C31.2112 5.61845 30.0669 5.14453 28.8736 5.14453C27.6804 5.14453 26.536 5.61845 25.6921 6.46207L15.3001 16.8571C15.2589 16.8981 15.2207 16.9423 15.1861 16.9891C13.1812 19.1465 12.0942 21.9992 12.1553 24.9438C12.2163 27.8883 13.4205 30.6936 15.5131 32.7661L50.4781 67.7341C51.1786 68.4314 52.0143 68.9782 52.9338 69.3406C53.8534 69.7031 54.8374 69.8737 55.8253 69.8418C56.8132 69.81 57.7841 69.5765 58.6784 69.1555C59.5727 68.7346 60.3715 68.1352 61.0256 67.3942C61.6797 66.6532 62.1754 65.7863 62.4821 64.8466C62.7888 63.907 62.9001 62.9146 62.8091 61.9304C62.7181 60.9461 62.4267 59.9909 61.953 59.1235C61.4792 58.256 60.833 57.4946 60.0541 56.8861L47.2021 46.8931L56.6641 37.4341C57.11 36.9883 57.4636 36.4591 57.7049 35.8767C57.9462 35.2943 58.0704 34.67 58.0704 34.0396C58.0704 33.4091 57.9462 32.7849 57.7049 32.2024C57.4636 31.62 57.11 31.0908 56.6641 30.6451C56.5527 30.5335 56.4203 30.445 56.2746 30.3846C56.129 30.3242 55.9728 30.2931 55.8151 30.2931C55.6574 30.2931 55.5013 30.3242 55.3556 30.3846C55.2099 30.445 55.0776 30.5335 54.9661 30.6451ZM54.9661 35.7451L44.5441 46.1671C44.4232 46.2876 44.3294 46.4325 44.269 46.5921C44.2085 46.7518 44.1828 46.9225 44.1936 47.0929C44.2044 47.2632 44.2514 47.4293 44.3315 47.5801C44.4116 47.7309 44.523 47.8628 44.6581 47.9671L58.5781 58.7971C59.1009 59.2034 59.535 59.7126 59.8535 60.2932C60.1719 60.8738 60.3681 61.5135 60.4298 62.1728C60.4916 62.8321 60.4176 63.497 60.2124 64.1267C60.0073 64.7563 59.6754 65.3372 59.2371 65.8336C58.7988 66.33 58.2634 66.7313 57.6641 67.0128C57.0647 67.2944 56.414 67.4501 55.7521 67.4705C55.0903 67.4909 54.4312 67.3754 53.8157 67.1313C53.2001 66.8872 52.6411 66.5195 52.1731 66.0511L17.2081 31.0711C15.543 29.4212 14.5908 27.1844 14.5561 24.8405C14.5213 22.4967 15.4066 20.2326 17.0221 18.5341C17.0457 18.5105 17.0677 18.4854 17.0881 18.4591L27.3901 8.16007C27.6294 7.92089 27.9229 7.74306 28.2458 7.64173C28.5686 7.54039 28.9111 7.51855 29.2441 7.57807L18.4651 18.3571C17.9703 18.852 17.664 19.5043 17.5994 20.2012C17.5347 20.898 17.7157 21.5956 18.1111 22.1731L19.8001 24.6151C23.6881 30.2882 28.4313 35.3249 33.8611 39.5461L40.5511 44.7511C41.1282 45.2 41.8494 45.4228 42.5791 45.3775C43.3089 45.3322 43.997 45.022 44.5141 44.5051L55.5991 33.4201C55.7063 33.8277 55.7042 34.2564 55.593 34.6629C55.4819 35.0695 55.2657 35.4396 54.9661 35.7361V35.7451Z" fill="#D7B45C"/>
</svg>
