<svg width="75" height="75" viewBox="0 0 75 75" fill="none" xmlns="http://www.w3.org/2000/svg">
<path d="M70.3079 54.2038L70.2809 54.1228C70.2485 53.9494 70.1992 53.7796 70.1339 53.6158C65.2319 36.8578 58.5269 24.7678 48.4379 14.4868C48.2855 14.3405 48.0971 14.237 47.8919 14.1868C47.4957 13.9658 47.0496 13.8499 46.5959 13.8499C46.1422 13.8499 45.6961 13.9658 45.2999 14.1868L39.7799 17.2288C39.2443 17.5238 38.8247 17.992 38.5898 18.5566C38.3549 19.1212 38.3186 19.7489 38.4869 20.3368C38.5559 20.5798 38.6279 20.8168 38.6999 21.0568C28.6987 20.122 18.6148 20.6424 8.7629 22.6018C8.45105 22.6647 8.17696 22.8489 8.00088 23.1139C7.8248 23.3789 7.76114 23.7029 7.8239 24.0148C7.83276 24.058 7.84582 24.1002 7.8629 24.1408C7.8221 24.2565 7.80081 24.3781 7.7999 24.5008V27.1618C7.41309 27.0964 7.01669 27.1161 6.63826 27.2195C6.25984 27.3229 5.90849 27.5075 5.60868 27.7605C5.30886 28.0135 5.06777 28.3288 4.90219 28.6844C4.73661 29.04 4.65052 29.4275 4.6499 29.8198V55.2358C4.65264 56.3272 5.0483 57.3812 5.76447 58.2048C6.48064 59.0283 7.46943 59.5665 8.5499 59.7208C15.3458 60.6797 22.2007 61.1589 29.0639 61.1548C36.0489 61.1456 43.0251 60.6594 49.9439 59.6998C51.0264 59.544 52.0165 59.0033 52.7328 58.1768C53.449 57.3503 53.8435 56.2934 53.8439 55.1998V51.7018C55.7839 54.3678 57.8639 56.9568 60.0839 59.4688C60.493 59.9249 61.0443 60.2294 61.6482 60.3328C62.2521 60.4363 62.8733 60.3327 63.4109 60.0388L68.9369 56.9998C69.2817 56.8094 69.5807 56.5458 69.8129 56.2276C70.0451 55.9094 70.2048 55.5443 70.2809 55.1578C70.306 55.0322 70.3211 54.9048 70.3259 54.7768C70.3663 54.5871 70.3601 54.3905 70.3079 54.2038ZM65.6999 47.6098C59.7668 39.4012 54.8792 30.4856 51.1499 21.0688C57.2999 28.4998 61.9769 37.0318 65.6999 47.6098ZM10.1999 25.9558C20.2508 27.8016 30.518 28.1634 40.6739 27.0298C40.8599 27.5398 41.0459 28.0438 41.2319 28.5298L41.2589 28.5838C41.3099 28.7188 41.3639 28.8568 41.4179 28.9918C31.0213 30.471 20.4421 30.041 10.1999 27.7228V25.9558ZM39.4709 23.5558C39.5369 23.7598 39.6029 23.9638 39.6719 24.1558C39.7289 24.3328 39.7889 24.5098 39.8489 24.6868C31.2041 25.6016 22.4781 25.4131 13.8809 24.1258C22.353 22.8628 30.9499 22.6662 39.4709 23.5408V23.5558ZM51.4499 48.2698V55.2238C51.4464 55.7353 51.2595 56.2286 50.9232 56.614C50.5868 56.9994 50.1233 57.2512 49.6169 57.3238C36.1003 59.2093 22.3875 59.2093 8.8709 57.3238C8.36647 57.2492 7.90544 56.9964 7.57137 56.6111C7.23731 56.2259 7.05231 55.7337 7.0499 55.2238V29.8198C7.04845 29.7745 7.05808 29.7294 7.07794 29.6887C7.09781 29.6479 7.12731 29.6126 7.1639 29.5858C7.21409 29.543 7.27794 29.5196 7.3439 29.5198H7.4189C18.8276 32.4121 30.6971 33.0107 42.3389 31.2808C42.4349 31.5148 42.5399 31.7428 42.6389 31.9768C42.7379 32.2108 42.8159 32.3878 42.9059 32.5948C43.1879 33.2448 43.4789 33.8938 43.7789 34.5418L43.9439 34.9048C44.9039 36.9608 45.9319 38.9848 47.0279 40.9768L47.0819 41.0728C48.1999 43.0988 49.3879 45.0838 50.6459 47.0278C50.6569 47.0421 50.667 47.0571 50.6759 47.0728C50.9339 47.4778 51.1859 47.8768 51.4499 48.2698ZM67.7789 54.8998L62.2559 57.9478C62.1973 57.9806 62.1294 57.9929 62.0631 57.9825C61.9967 57.9722 61.9357 57.9399 61.8899 57.8908C57.0142 52.385 52.7586 46.3598 49.1999 39.9238L49.1249 39.7888C48.7259 39.0658 48.3389 38.3368 47.9579 37.6048C47.9099 37.5148 47.8649 37.4218 47.8169 37.3288C47.4629 36.6408 47.1179 35.9498 46.7819 35.2558L46.6109 34.9018C46.3109 34.2568 46.0109 33.6058 45.7109 32.9518C45.6359 32.7838 45.5579 32.6188 45.4829 32.4508C45.3179 32.0728 45.1499 31.6978 44.9879 31.3198C44.7879 30.8638 44.5949 30.4058 44.4089 29.9458C43.8989 28.7158 43.4149 27.4728 42.9569 26.2168L42.9389 26.1658C42.5389 25.1218 42.1659 24.0648 41.8199 22.9948C41.7239 22.6948 41.6279 22.3948 41.5199 22.1158C41.2619 21.3058 41.0159 20.4928 40.7789 19.6708C40.7618 19.6063 40.7667 19.538 40.7928 19.4766C40.8188 19.4152 40.8646 19.3642 40.9229 19.3318L46.4459 16.2838C46.4845 16.2622 46.5273 16.2494 46.5714 16.2463C46.6155 16.2432 46.6597 16.2498 46.7009 16.2658C46.7397 16.2819 46.7748 16.3059 46.8037 16.3364C46.8326 16.3669 46.8549 16.4032 46.8689 16.4428C51.5927 30.2373 58.6949 43.0985 67.8539 54.4438C67.8539 54.4438 67.8539 54.4438 67.8539 54.4618C67.8719 54.5218 67.8899 54.5788 67.9049 54.6388C67.9199 54.6988 67.9049 54.6688 67.9049 54.6838C67.9007 54.7267 67.8872 54.7683 67.8655 54.8055C67.8437 54.8428 67.8142 54.875 67.7789 54.8998Z" fill="#D7B45C"/>
</svg>
