<svg width="75" height="75" viewBox="0 0 75 75" fill="none" xmlns="http://www.w3.org/2000/svg">
<rect x="4.76726" y="60.2238" width="65.3935" height="8.41817" rx="4.20908" transform="rotate(-29 4.76726 60.2238)" stroke="#D7B45C" stroke-width="2.6"/>
<circle cx="59.971" cy="34.2843" r="1.46909" fill="#D7B45C"/>
<circle cx="10.7567" cy="61.4625" r="1.46909" fill="#D7B45C"/>
<path d="M53.3414 31.4723L45.9364 27.2952C43.9315 26.1642 41.4941 26.2773 39.5163 26.3691C39.463 26.3715 39.4101 26.374 39.3575 26.3764C37.1499 26.4778 35.452 26.5211 34.1588 25.8026C31.5304 24.3424 16.2888 15.7129 8.90801 11.5305C8.58902 11.2731 8.24128 10.8429 8.11912 10.3873C8.02088 10.0209 8.01543 9.4823 8.73761 8.76011C9.24845 8.24928 9.66724 7.80199 10.0066 7.43953C10.1057 7.3337 10.198 7.2351 10.2839 7.14426C10.6902 6.71441 10.9128 6.50281 11.0833 6.38473C11.1998 6.30408 11.2408 6.30105 11.3001 6.30008C11.4238 6.29805 11.6667 6.33157 12.1818 6.50326C12.6343 6.65407 14.2826 7.40829 16.685 8.5598C19.0362 9.68675 22.003 11.1415 25.0073 12.6322C31.0311 15.6211 37.152 18.7279 38.7724 19.6281C41.8733 21.3508 48.8388 25.33 55.704 30.9507L54.3134 31.5301C53.9978 31.6616 53.6392 31.6403 53.3414 31.4723Z" stroke="#D7B45C" stroke-width="2.6"/>
<path d="M65.4184 39.4369C65.9277 39.8444 66.4605 40.2707 66.9783 40.6599C65.7717 40.3161 64.3554 39.8571 63.118 39.3514C62.679 39.172 62.5965 38.9154 62.5935 38.7368C62.5899 38.5169 62.7145 38.1451 63.1988 37.8539C63.2243 37.8385 63.2409 37.8309 63.2503 37.8272C63.2707 37.831 63.3318 37.8465 63.4463 37.9079C63.602 37.9916 63.7909 38.1239 64.0432 38.3246C64.1656 38.4219 64.2901 38.5249 64.4291 38.6398L64.4331 38.6431C64.5697 38.756 64.72 38.8803 64.8743 39.0027C65.0513 39.1432 65.2333 39.2888 65.4184 39.4369ZM63.2602 37.8244C63.2601 37.8246 63.2582 37.8252 63.2546 37.8257C63.2585 37.8244 63.2603 37.8242 63.2602 37.8244Z" stroke="#D7B45C" stroke-width="3"/>
</svg>
