<svg width="75" height="75" viewBox="0 0 75 75" fill="none" xmlns="http://www.w3.org/2000/svg">
<path d="M51.7632 67.69H20.5398C22.77 64.9642 29.0147 59.5125 36.1515 59.5125C43.2883 59.5125 49.533 64.9642 51.7632 67.69Z" stroke="#D7B45C" stroke-width="2.5"/>
<path d="M36.1514 58.7691V47.6179" stroke="#D7B45C" stroke-width="2.5"/>
<path d="M49.533 47.6179H22.7701C19.053 47.6179 19.053 46.131 19.053 43.1573C19.053 40.1836 33.9213 37.2101 43.5857 35.7233C53.2501 34.2365 56.2237 35.7233 56.2237 41.6706C56.2237 46.4285 51.7632 47.6179 49.533 47.6179Z" stroke="#D7B45C" stroke-width="2.5"/>
<path d="M19.7963 41.6703C16.5748 33.4928 9.9832 16.6916 9.38847 14.9074C8.64505 12.6772 8.64505 8.96009 12.3621 7.47326C16.0792 5.98643 17.5661 8.21667 19.0529 11.1903C20.2424 13.5693 24.5046 30.5192 26.487 38.6968" stroke="#D7B45C" stroke-width="2.5"/>
<path d="M23.5134 25.3152C29.4607 24.5718 41.9501 23.085 44.329 23.085C47.3027 23.085 48.0461 23.8284 47.3027 26.802C46.5593 29.7757 42.8422 29.7757 38.3817 29.7757C34.8133 29.7757 27.4783 29.7757 24.2568 29.7757" stroke="#D7B45C" stroke-width="2.5"/>
<path d="M44.3291 35.7232V29.7759" stroke="#D7B45C" stroke-width="2.5"/>
<path d="M49.533 47.6179V55.0521C49.533 56.7867 50.8711 60.256 56.2237 60.256C61.5763 60.256 65.3925 60.256 66.6315 60.256" stroke="#D7B45C" stroke-width="2.5"/>
</svg>
