<svg width="28" height="28" viewBox="0 0 28 28" fill="none" xmlns="http://www.w3.org/2000/svg">
<path d="M19.25 2.625H8.75C7.12555 2.625 5.56763 3.27031 4.41897 4.41897C3.27031 5.56763 2.625 7.12555 2.625 8.75V19.25C2.625 20.8745 3.27031 22.4324 4.41897 23.581C5.56763 24.7297 7.12555 25.375 8.75 25.375H19.25C20.8745 25.375 22.4324 24.7297 23.581 23.581C24.7297 22.4324 25.375 20.8745 25.375 19.25V8.75C25.375 7.12555 24.7297 5.56763 23.581 4.41897C22.4324 3.27031 20.8745 2.625 19.25 2.625ZM23.625 19.25C23.625 20.4103 23.1641 21.5231 22.3436 22.3436C21.5231 23.1641 20.4103 23.625 19.25 23.625H8.75C7.58968 23.625 6.47688 23.1641 5.65641 22.3436C4.83594 21.5231 4.375 20.4103 4.375 19.25V8.75C4.375 7.58968 4.83594 6.47688 5.65641 5.65641C6.47688 4.83594 7.58968 4.375 8.75 4.375H19.25C20.4103 4.375 21.5231 4.83594 22.3436 5.65641C23.1641 6.47688 23.625 7.58968 23.625 8.75V19.25Z" fill="#D7B45C"/>
<path d="M14 8.3125C12.8751 8.3125 11.7755 8.64607 10.8402 9.27102C9.90489 9.89597 9.17591 10.7842 8.74544 11.8235C8.31496 12.8627 8.20233 14.0063 8.42179 15.1096C8.64124 16.2128 9.18292 17.2263 9.97833 18.0217C10.7737 18.8171 11.7872 19.3588 12.8904 19.5782C13.9937 19.7977 15.1373 19.685 16.1765 19.2546C17.2158 18.8241 18.104 18.0951 18.729 17.1598C19.3539 16.2245 19.6875 15.1249 19.6875 14C19.6852 12.4923 19.0852 11.047 18.0191 9.98089C16.953 8.91477 15.5077 8.31481 14 8.3125ZM14 17.9375C13.2212 17.9375 12.46 17.7066 11.8124 17.2739C11.1649 16.8413 10.6602 16.2263 10.3622 15.5068C10.0642 14.7873 9.98623 13.9956 10.1382 13.2318C10.2901 12.468 10.6651 11.7664 11.2158 11.2158C11.7664 10.6651 12.468 10.2901 13.2318 10.1382C13.9956 9.98623 14.7873 10.0642 15.5068 10.3622C16.2263 10.6602 16.8413 11.1649 17.2739 11.8124C17.7066 12.46 17.9375 13.2212 17.9375 14C17.9352 15.0436 17.5196 16.0438 16.7817 16.7817C16.0438 17.5196 15.0436 17.9352 14 17.9375Z" fill="#D7B45C"/>
<path d="M20.125 8.75C20.6082 8.75 21 8.35825 21 7.875C21 7.39175 20.6082 7 20.125 7C19.6418 7 19.25 7.39175 19.25 7.875C19.25 8.35825 19.6418 8.75 20.125 8.75Z" fill="#D7B45C"/>
</svg>
