<svg width="28" height="28" viewBox="0 0 28 28" fill="none" xmlns="http://www.w3.org/2000/svg">
<path d="M14 1.75C11.5772 1.75 9.20877 2.46845 7.19427 3.8145C5.17977 5.16054 3.60965 7.07373 2.68248 9.31213C1.75531 11.5505 1.51272 14.0136 1.98539 16.3899C2.45805 18.7661 3.62475 20.9489 5.33795 22.6621C7.05114 24.3752 9.23388 25.542 11.6101 26.0146C13.9864 26.4873 16.4495 26.2447 18.6879 25.3175C20.9263 24.3904 22.8395 22.8202 24.1855 20.8057C25.5316 18.7912 26.25 16.4228 26.25 14C26.25 10.7511 24.9594 7.63526 22.6621 5.33794C20.3647 3.04062 17.2489 1.75 14 1.75ZM14 24.5C12.8663 24.4974 11.7405 24.3113 10.6663 23.9488L11.7163 19.74C12.4506 19.9954 13.2226 20.1255 14 20.125C14.4106 20.1244 14.8203 20.0893 15.225 20.02C16.5883 19.7792 17.8495 19.1397 18.8493 18.1822C19.8491 17.2246 20.5425 15.9922 20.8419 14.6406C21.1413 13.289 21.0332 11.879 20.5313 10.5888C20.0294 9.29868 19.1563 8.1863 18.0222 7.39235C16.8882 6.59839 15.5442 6.15852 14.1602 6.12834C12.7762 6.09816 11.4143 6.47904 10.2467 7.2228C9.07913 7.96657 8.1583 9.03983 7.60065 10.3069C7.043 11.5739 6.87356 12.9779 7.11376 14.3412C7.13386 14.4562 7.17641 14.566 7.23896 14.6644C7.30151 14.7629 7.38284 14.8481 7.47831 14.9151C7.57378 14.9822 7.68152 15.0297 7.79538 15.0551C7.90923 15.0805 8.02697 15.0832 8.14188 15.0631C8.25679 15.043 8.36661 15.0005 8.46507 14.9379C8.56354 14.8754 8.64872 14.794 8.71575 14.6986C8.78278 14.6031 8.83035 14.4954 8.85575 14.3815C8.88114 14.2676 8.88386 14.1499 8.86376 14.035C8.66015 12.8943 8.83967 11.7182 9.37431 10.6902C9.90895 9.66216 10.7687 8.83989 11.8195 8.35154C12.8703 7.86319 14.0532 7.73622 15.1837 7.9904C16.3143 8.24459 17.3289 8.86565 18.0696 9.75679C18.8103 10.6479 19.2353 11.7591 19.2784 12.917C19.3216 14.075 18.9804 15.2147 18.3082 16.1585C17.6359 17.1023 16.6702 17.7971 15.5618 18.1347C14.4533 18.4724 13.2643 18.4338 12.18 18.025L13.125 14.21C13.1526 14.0951 13.1573 13.9759 13.1388 13.8592C13.1203 13.7425 13.079 13.6305 13.0172 13.5298C12.9555 13.429 12.8745 13.3414 12.7789 13.272C12.6833 13.2025 12.5749 13.1526 12.46 13.125C12.3451 13.0974 12.2259 13.0927 12.1092 13.1112C11.9925 13.1297 11.8805 13.171 11.7798 13.2328C11.679 13.2945 11.5914 13.3755 11.522 13.4711C11.4525 13.5667 11.4026 13.6751 11.375 13.79L9.01251 23.2487C6.7572 22.0366 5.02253 20.0421 4.1348 17.6405C3.24707 15.2389 3.26747 12.5957 4.19214 10.208C5.11682 7.8204 6.88205 5.85292 9.15579 4.67568C11.4295 3.49844 14.0551 3.19258 16.5385 3.81562C19.022 4.43867 21.1922 5.94768 22.641 8.05881C24.0898 10.1699 24.7172 12.7377 24.4053 15.2791C24.0934 17.8204 22.8637 20.1602 20.9474 21.8584C19.0312 23.5565 16.5604 24.496 14 24.5Z" fill="#D7B45C"/>
</svg>
