<svg width="28" height="28" viewBox="0 0 28 28" fill="none" xmlns="http://www.w3.org/2000/svg">
<path d="M21 24.4998C20.8027 24.4987 20.6115 24.4309 20.4575 24.3073L14.735 19.7311C14.6998 19.7799 14.6618 19.8266 14.6213 19.8711L11.1213 23.3711C11.0176 23.4759 10.8891 23.5527 10.7478 23.5946C10.6065 23.6365 10.4568 23.6419 10.3128 23.6105C10.1688 23.5791 10.035 23.5118 9.92399 23.4149C9.81293 23.3179 9.72815 23.1945 9.67754 23.0561L7.17504 16.3798L2.23129 13.9036C2.08158 13.8267 1.95721 13.7084 1.87308 13.5626C1.78894 13.4169 1.74862 13.25 1.75693 13.0819C1.76524 12.9139 1.82184 12.7518 1.91994 12.615C2.01804 12.4783 2.15348 12.3728 2.31004 12.3111L25.06 3.56108C25.2059 3.5056 25.3639 3.49013 25.5178 3.51628C25.6716 3.54244 25.8157 3.60926 25.935 3.70983C26.0598 3.81439 26.1529 3.95167 26.2039 4.10625C26.2549 4.26082 26.2618 4.42656 26.2238 4.58483L21.8488 23.8348C21.8152 23.9795 21.7454 24.1132 21.6459 24.2234C21.5464 24.3336 21.4205 24.4167 21.28 24.4648C21.1892 24.4916 21.0946 24.5034 21 24.4998ZM13.6238 16.6248L20.4575 22.0936L24.1588 5.78358L4.78629 13.2298L8.28629 14.9798C8.48358 15.0778 8.63668 15.2465 8.71504 15.4523L10.8588 21.1748L13.3875 18.6548L11.725 17.3161C11.6175 17.2355 11.5301 17.1312 11.4694 17.0113C11.4087 16.8914 11.3764 16.7592 11.375 16.6248C11.3725 16.4955 11.3986 16.3672 11.4515 16.2492C11.5045 16.1312 11.583 16.0264 11.6813 15.9423L17.8063 10.6923C17.8936 10.6176 17.9948 10.5609 18.1041 10.5253C18.2133 10.4897 18.3285 10.476 18.4431 10.4849C18.5577 10.4939 18.6693 10.5253 18.7718 10.5774C18.8742 10.6295 18.9653 10.7013 19.04 10.7886C19.1147 10.8759 19.1715 10.9771 19.2071 11.0864C19.2427 11.1956 19.2564 11.3108 19.2474 11.4254C19.2385 11.54 19.2071 11.6516 19.155 11.7541C19.1029 11.8565 19.0311 11.9476 18.9438 12.0223L13.6238 16.6248Z" fill="#D7B45C"/>
</svg>
