<svg width="28" height="28" viewBox="0 0 28 28" fill="none" xmlns="http://www.w3.org/2000/svg">
<path d="M21 2.625H7C5.83968 2.625 4.72688 3.08594 3.90641 3.90641C3.08594 4.72688 2.625 5.83968 2.625 7V21C2.625 22.1603 3.08594 23.2731 3.90641 24.0936C4.72688 24.9141 5.83968 25.375 7 25.375H21C22.1603 25.375 23.2731 24.9141 24.0936 24.0936C24.9141 23.2731 25.375 22.1603 25.375 21V7C25.375 5.83968 24.9141 4.72688 24.0936 3.90641C23.2731 3.08594 22.1603 2.625 21 2.625ZM23.625 21C23.625 21.6962 23.3484 22.3639 22.8562 22.8562C22.3639 23.3484 21.6962 23.625 21 23.625H14.875V15.75H18.375C18.6071 15.75 18.8296 15.6578 18.9937 15.4937C19.1578 15.3296 19.25 15.1071 19.25 14.875C19.25 14.6429 19.1578 14.4204 18.9937 14.2563C18.8296 14.0922 18.6071 14 18.375 14H14.875V12.25C14.875 11.7859 15.0594 11.3408 15.3876 11.0126C15.7158 10.6844 16.1609 10.5 16.625 10.5H18.375C18.6071 10.5 18.8296 10.4078 18.9937 10.2437C19.1578 10.0796 19.25 9.85706 19.25 9.625C19.25 9.39294 19.1578 9.17038 18.9937 9.00628C18.8296 8.84219 18.6071 8.75 18.375 8.75H16.625C15.6967 8.75 14.8065 9.11875 14.1501 9.77513C13.4937 10.4315 13.125 11.3217 13.125 12.25V14H10.5C10.2679 14 10.0454 14.0922 9.88128 14.2563C9.71719 14.4204 9.625 14.6429 9.625 14.875C9.625 15.1071 9.71719 15.3296 9.88128 15.4937C10.0454 15.6578 10.2679 15.75 10.5 15.75H13.125V23.625H7C6.30381 23.625 5.63613 23.3484 5.14384 22.8562C4.65156 22.3639 4.375 21.6962 4.375 21V7C4.375 6.30381 4.65156 5.63613 5.14384 5.14384C5.63613 4.65156 6.30381 4.375 7 4.375H21C21.6962 4.375 22.3639 4.65156 22.8562 5.14384C23.3484 5.63613 23.625 6.30381 23.625 7V21Z" fill="#D7B45C"/>
</svg>
